<svg width="40" height="40" fill="none" xmlns="http://www.w3.org/2000/svg"><path d="M38.75 28.75v-3.125l-5-4.375h-5M15 36.25a2.5 2.5 0 1 0 0-5 2.5 2.5 0 0 0 0 5ZM33.75 36.25a2.5 2.5 0 1 0 0-5 2.5 2.5 0 0 0 0 5Z" stroke="#666" stroke-width="2" stroke-miterlimit="10" stroke-linecap="round" stroke-linejoin="round"/><path d="M12.5 33.75H10v-5m0 0h28.75v5h-2.5m-26.25-5V18.625M15.313 15H28.75v13.75m-27.5-5H5m-1.25 5H5" stroke="#666" stroke-width="2" stroke-miterlimit="10" stroke-linecap="round" stroke-linejoin="round"/><path d="M12.5 33.75H10v-5m0 0h28.75v5h-2.5m-26.25-5V18.625M15.313 15H28.75v13.75m-27.5-5H5m-1.25 5H5m12.813 5H31.25" stroke="#666" stroke-width="2" stroke-miterlimit="10" stroke-linecap="round" stroke-linejoin="round"/><path d="M8.75 18.75a7.5 7.5 0 1 0 0-15 7.5 7.5 0 0 0 0 15Z" stroke="#666" stroke-width="2" stroke-miterlimit="10" stroke-linecap="round" stroke-linejoin="round"/><path d="M8.75 7.5v5h3.75" stroke="#666" stroke-width="2" stroke-miterlimit="10" stroke-linecap="round" stroke-linejoin="round"/></svg>