<svg width="140" height="40" fill="none" xmlns="http://www.w3.org/2000/svg"><rect x=".5" y=".5" width="139" height="39" rx=".5" stroke="#CCC"/><path fill-rule="evenodd" clip-rule="evenodd" d="M44.437 23.108v1.65h3.977a3.446 3.446 0 0 1-.92 2.08 4.08 4.08 0 0 1-3.066 1.209c-2.415-.036-4.354-1.995-4.354-4.398 0-2.403 1.94-4.361 4.354-4.397a4.246 4.246 0 0 1 3.01 1.181l1.17-1.163a5.805 5.805 0 0 0-4.171-1.713 6.092 6.092 0 0 0-5.462 2.957 6.03 6.03 0 0 0 0 6.188 6.092 6.092 0 0 0 5.462 2.957 5.537 5.537 0 0 0 4.244-1.695 5.481 5.481 0 0 0 1.436-3.866 5.363 5.363 0 0 0-.092-1.035l-5.588.046Zm10.21-1.2c-2.16.006-3.907 1.751-3.903 3.9.003 2.15 1.756 3.89 3.915 3.887 2.16-.001 3.91-1.744 3.91-3.893a3.83 3.83 0 0 0-1.137-2.777 3.867 3.867 0 0 0-2.796-1.117h.01Zm4.676 3.906c-.007-2.148 1.735-3.896 3.894-3.906a3.868 3.868 0 0 1 2.795 1.117 3.83 3.83 0 0 1 1.136 2.777c0 2.148-1.748 3.89-3.907 3.893-2.158.004-3.911-1.733-3.918-3.88Zm1.585 1.013a2.377 2.377 0 0 0 2.309 1.34 2.27 2.27 0 0 0 1.606-.719 2.247 2.247 0 0 0 .603-1.646 2.364 2.364 0 0 0-1.509-2.194 2.383 2.383 0 0 0-2.605.591 2.355 2.355 0 0 0-.404 2.628Zm-8.576.007a2.377 2.377 0 0 0 2.314 1.332h-.01a2.27 2.27 0 0 0 1.607-.718c.417-.445.634-1.039.604-1.646a2.364 2.364 0 0 0-1.511-2.195 2.383 2.383 0 0 0-2.606.596 2.355 2.355 0 0 0-.398 2.63Zm30.466-4.925a3.68 3.68 0 0 1 3.35 2.482l.193.412-5.237 2.153A1.99 1.99 0 0 0 83 28.138a2.24 2.24 0 0 0 1.924-1.08l1.335.916A3.9 3.9 0 0 1 83 29.696a3.84 3.84 0 0 1-2.774-1.125 3.801 3.801 0 0 1-1.111-2.768 3.654 3.654 0 0 1 .994-2.74 3.691 3.691 0 0 1 2.689-1.154Zm-1.99 3.783a2.128 2.128 0 0 1 .543-1.564 2.149 2.149 0 0 1 1.501-.708 1.523 1.523 0 0 1 1.455.824l-3.498 1.448Zm-2.53 3.775h-1.722V18.015h1.722v11.452Zm-4.539-6.688h-.064a2.768 2.768 0 0 0-2.062-.917 3.912 3.912 0 0 0-3.727 3.899 3.912 3.912 0 0 0 3.727 3.898 2.676 2.676 0 0 0 2.062-.917h.054v.56c0 1.493-.8 2.29-2.089 2.29a2.163 2.163 0 0 1-1.97-1.384l-1.5.623a3.729 3.729 0 0 0 3.47 2.3c2.016 0 3.682-1.181 3.682-4.059v-6.934h-1.583v.641Zm-1.973 5.387h.003-.01.007Zm1.551-.735c-.395.445-.955.71-1.55.735a2.378 2.378 0 0 1-2.172-2.364c0-1.23.944-2.255 2.174-2.364.595.03 1.152.299 1.545.744.394.445.59 1.029.545 1.62a2.173 2.173 0 0 1-.542 1.629Zm20.895-9.416h-4.115v11.452h1.722v-4.343h2.403a3.586 3.586 0 0 0 3.31-1.701 3.549 3.549 0 0 0 0-3.707 3.585 3.585 0 0 0-3.31-1.701h-.01ZM91.81 23.51h2.402l.037.029a1.97 1.97 0 0 0 1.975-1.966 1.97 1.97 0 0 0-1.975-1.965H91.81v3.902Zm13.017-1.649a3.226 3.226 0 0 0-3.066 1.75l1.528.633a1.635 1.635 0 0 1 1.565-.844c.442-.051.886.076 1.232.354.347.277.566.682.61 1.122v.119a3.818 3.818 0 0 0-1.796-.44c-1.647 0-3.314.916-3.314 2.575.033.714.355 1.385.893 1.86a2.667 2.667 0 0 0 1.961.659 2.425 2.425 0 0 0 2.21-1.1h.055v.917h1.657V25.06c0-2.006-1.528-3.17-3.489-3.17l-.046-.028Zm-1.555 5.305c0 .688.782.97 1.344.97l.046.03a2.075 2.075 0 0 0 2.015-1.834 3.067 3.067 0 0 0-1.565-.384c-.865 0-1.84.301-1.84 1.218Zm11.129-5.03-1.97 4.965h-.055l-2.044-4.964h-1.841l3.065 6.944-1.749 3.857h1.795l4.714-10.801h-1.915Zm-13.753 7.33h-1.721V18.015h1.721v11.452Z" fill="#fff"/><path d="M10.149 8.85a1.748 1.748 0 0 0-.367 1.242V28.95c-.026.436.111.865.383 1.2l.058.06 10.303-10.56V19.4L10.206 8.79l-.057.06Z" fill="#5BC9F4"/><path d="m24.096 23.395-3.57-3.296v-.232l3.57-3.288.078.04 4.242 2.219c1.21.63 1.21 1.667 0 2.306l-4.226 2.218-.094.033Z" fill="url('#paint0_linear_91_1721')"/><path d="M23.45 23.015 19.988 19.5 9.774 29.873c.483.43 1.2.451 1.707.05l11.978-6.907" fill="url('#paint1_linear_91_1721')"/><path d="M23.459 15.985 11.48 9.078a1.322 1.322 0 0 0-1.707.05L19.997 19.5l3.462-3.515Z" fill="url('#paint2_linear_91_1721')"/><path fill-rule="evenodd" clip-rule="evenodd" d="M39.712 13.184h-.614v2.176h.798V13.86h4.563v1.499h.799v-2.176h-.693V7.816h-4.037l.001 1.202c0 .805-.078 1.609-.233 2.4-.074.364-.16.699-.26 1.004-.099.305-.207.559-.324.762Zm4.019-4.69v4.69h-3.106a4.43 4.43 0 0 0 .268-.703 11.164 11.164 0 0 0 .443-3.116v-.872h2.395Zm4.398 5.46c-.362 0-.68-.057-.952-.173a1.947 1.947 0 0 1-1.11-1.207 2.78 2.78 0 0 1-.14-.897c0-.322.047-.622.14-.903.094-.279.234-.52.421-.728.188-.206.417-.368.689-.486.273-.119.59-.178.952-.178.357 0 .673.06.948.178.275.118.506.28.693.486.187.207.328.449.421.728.094.28.14.58.14.903 0 .321-.046.62-.14.897a1.937 1.937 0 0 1-1.114 1.207c-.3.12-.623.18-.948.173Zm.55-.737c-.174.074-.357.11-.55.11-.38.001-.744-.154-1-.427-.129-.139-.23-.31-.303-.516a2.115 2.115 0 0 1-.11-.707c0-.266.036-.5.11-.707.074-.207.174-.38.303-.521.124-.138.278-.248.451-.322.173-.073.36-.11.55-.11.188 0 .375.037.548.11.173.074.327.184.452.322.135.152.238.33.303.52.073.207.109.442.109.708 0 .265-.036.5-.11.707a1.471 1.471 0 0 1-.302.515 1.3 1.3 0 0 1-.452.319Zm4.603.737c-.345 0-.65-.054-.916-.16a1.78 1.78 0 0 1-.667-.458 1.964 1.964 0 0 1-.405-.703 2.843 2.843 0 0 1-.135-.906c0-.327.044-.633.131-.918.088-.286.22-.533.4-.746.178-.211.4-.377.666-.498.267-.123.581-.183.944-.183.257 0 .498.03.723.09.226.059.424.15.597.274.174.124.315.28.426.47.111.189.181.414.21.673h-.772a1.088 1.088 0 0 0-.368-.643c-.187-.153-.439-.229-.755-.229-.269 0-.494.048-.675.144a1.19 1.19 0 0 0-.435.381c-.108.158-.186.34-.232.546-.048.21-.071.424-.07.64 0 .203.024.4.074.592.05.192.127.362.232.512.106.15.241.27.41.36.165.09.369.136.608.136.369 0 .657-.094.865-.28.208-.186.335-.449.382-.787h.763c-.082.547-.29.966-.623 1.258-.333.29-.793.435-1.378.435Zm2.503-3.835h1.623v3.742h.746v-3.742h1.624v-.635h-3.993v.635Zm5.25 5.486a2.06 2.06 0 0 1-.264-.017 1.279 1.279 0 0 1-.254-.06v-.66l.214.068a.757.757 0 0 0 .225.034c.13.006.26-.03.368-.102a.863.863 0 0 0 .246-.296l.307-.736-1.799-4.352h.842l1.325 3.581h.018l1.273-3.581h.79l-1.975 4.953a4.352 4.352 0 0 1-.26.542 1.486 1.486 0 0 1-.28.359.959.959 0 0 1-.342.203c-.14.045-.287.066-.434.064Zm7.82-6.121h-3.703v4.377h.746v-3.742h2.211v3.742h.746V9.484Zm1.318 0h.746v1.744h2.3V9.484h.745v4.377h-.746v-2.015H70.92v2.015h-.746V9.484Zm6.114 4.297c.273.116.59.173.952.173.325.006.648-.053.948-.173a1.937 1.937 0 0 0 1.115-1.207c.093-.277.14-.576.14-.897 0-.322-.047-.622-.14-.903a2.033 2.033 0 0 0-.422-.728 1.982 1.982 0 0 0-.693-.486 2.375 2.375 0 0 0-.948-.178c-.362 0-.68.06-.951.178-.273.118-.502.28-.69.486a2.033 2.033 0 0 0-.42.728c-.094.28-.141.58-.141.903a2.78 2.78 0 0 0 .14.897 1.947 1.947 0 0 0 1.11 1.207Zm.952-.453c.193 0 .376-.037.55-.11a1.3 1.3 0 0 0 .45-.319c.13-.138.23-.31.303-.515a2.09 2.09 0 0 0 .11-.707c0-.266-.036-.5-.11-.708a1.513 1.513 0 0 0-.302-.52 1.287 1.287 0 0 0-.452-.322 1.388 1.388 0 0 0-.549-.11c-.189 0-.376.037-.549.11a1.286 1.286 0 0 0-.451.322c-.129.141-.23.314-.302.521a2.08 2.08 0 0 0-.11.707c0 .265.036.5.109.707.074.206.174.377.303.516s.279.244.451.317c.174.074.356.11.55.11Zm8.007-3.844H83.15v4.377h2.466c.189.002.376-.031.553-.097.17-.066.316-.154.438-.267.124-.114.222-.253.286-.407.067-.158.1-.33.1-.516 0-.293-.077-.533-.232-.72a1.048 1.048 0 0 0-.628-.355v-.009c.211-.096.375-.217.492-.364.117-.147.175-.338.175-.576 0-.22-.044-.4-.131-.541a.884.884 0 0 0-.351-.326 1.559 1.559 0 0 0-.496-.157 3.807 3.807 0 0 0-.575-.042Zm.228 3.767c.246 0 .431-.068.558-.207a.744.744 0 0 0 .188-.52.6.6 0 0 0-.202-.475c-.134-.118-.36-.178-.675-.178h-1.457v1.38h1.588Zm.364-2.142c-.125.113-.349.17-.67.17h-1.282v-1.186h1.281c.328 0 .553.05.676.148.126.105.194.26.184.42a.573.573 0 0 1-.189.448Z" fill="#fff"/><defs><linearGradient id="paint0_linear_91_1721" x1="27.63" y1="11.892" x2="6.735" y2="11.892" gradientUnits="userSpaceOnUse"><stop stop-color="#FEE000"/><stop offset=".42" stop-color="#FBBC0E"/><stop offset=".78" stop-color="#FAA418"/><stop offset="1" stop-color="#F99B1C"/></linearGradient><linearGradient id="paint1_linear_91_1721" x1="7.373" y1="17.189" x2=".317" y2="37.433" gradientUnits="userSpaceOnUse"><stop stop-color="#EF4547"/><stop offset="1" stop-color="#C6186D"/></linearGradient><linearGradient id="paint2_linear_91_1721" x1="-1.231" y1="2.011" x2="4.536" y2="18.536" gradientUnits="userSpaceOnUse"><stop stop-color="#279E6F"/><stop offset=".04" stop-color="#2BA06F"/><stop offset=".46" stop-color="#53B26C"/><stop offset=".8" stop-color="#6BBD6A"/><stop offset="1" stop-color="#74C169"/></linearGradient></defs></svg>