<svg width="47" height="46" fill="none" xmlns="http://www.w3.org/2000/svg"><path d="M.017 23.804v-1.608C.44 9.866 10.57 0 23.003 0c12.702 0 23 10.298 23 23s-10.298 23-23 23C10.57 46 .44 36.134.017 23.804Z" fill="#CCC"/><path fill-rule="evenodd" clip-rule="evenodd" d="M12.858 19.984V12.16h-3.7v20.272h3.695l.005-7.144c-.005-1.199.108-2.104.335-2.718.221-.612.573-1.07 1.061-1.377a3.006 3.006 0 0 1 1.642-.458c.535 0 .98.12 1.335.36.356.234.603.553.744.958.14.402.207 1.35.207 2.845v7.534h3.702v-8.366c0-1.28-.063-2.224-.19-2.83a4.518 4.518 0 0 0-.712-1.668c-.346-.5-.86-.912-1.548-1.233-.684-.324-1.448-.486-2.302-.486-1.656 0-3.084.715-4.274 2.135Zm14.569 0V12.16H23.73v20.272h3.697v-7.144c0-1.199.113-2.104.335-2.718.225-.612.578-1.07 1.06-1.377a3.007 3.007 0 0 1 1.642-.458c.536 0 .983.12 1.336.36.357.234.603.553.744.958.141.402.21 1.35.21 2.845v7.534h3.698v-8.366c0-1.28-.063-2.224-.19-2.83a4.503 4.503 0 0 0-.712-1.668c-.345-.5-.86-.912-1.543-1.233-.688-.324-1.456-.486-2.306-.486-1.656 0-3.082.715-4.274 2.135Z" fill="#212122"/></svg>