<svg width="36" height="36" fill="none" xmlns="http://www.w3.org/2000/svg"><path d="M35.5 18c0 9.665-7.835 17.5-17.5 17.5S.5 27.665.5 18 8.335.5 18 .5 35.5 8.335 35.5 18Z" stroke="#CCC"/><path fill-rule="evenodd" clip-rule="evenodd" d="M18 13.893c.738 0 1.423.184 2.054.553a4.12 4.12 0 0 1 1.5 1.5c.369.631.553 1.316.553 2.054 0 .738-.184 1.423-.553 2.053a4.12 4.12 0 0 1-1.5 1.5 3.996 3.996 0 0 1-2.054.554 3.996 3.996 0 0 1-2.054-.553 4.12 4.12 0 0 1-1.5-1.5A3.997 3.997 0 0 1 13.893 18c0-.738.184-1.423.553-2.054a4.12 4.12 0 0 1 1.5-1.5A3.996 3.996 0 0 1 18 13.893Zm0 6.907c.771 0 1.43-.274 1.978-.822A2.696 2.696 0 0 0 20.8 18c0-.771-.274-1.43-.822-1.978A2.697 2.697 0 0 0 18 15.2c-.771 0-1.43.274-1.978.822A2.696 2.696 0 0 0 15.2 18c0 .771.274 1.43.822 1.978A2.697 2.697 0 0 0 18 20.8Zm5.25-7.086a1.113 1.113 0 0 1-.304.679.87.87 0 0 1-.66.286.927.927 0 0 1-.679-.286.927.927 0 0 1-.286-.679c0-.262.096-.488.286-.678a.927.927 0 0 1 .679-.286c.262 0 .488.095.678.286.19.19.286.416.286.678Zm2.714.965c.024.666.036 1.773.036 3.321 0 1.548-.018 2.66-.054 3.34-.035.678-.137 1.267-.303 1.767a4.163 4.163 0 0 1-.982 1.554c-.44.44-.959.768-1.554.982-.5.166-1.09.268-1.768.303-.678.036-1.791.054-3.339.054s-2.66-.018-3.34-.054c-.678-.035-1.267-.148-1.767-.339a3.806 3.806 0 0 1-1.554-.946 4.163 4.163 0 0 1-.982-1.554c-.166-.5-.268-1.09-.303-1.768C10.018 20.661 10 19.548 10 18s.018-2.66.054-3.34c.035-.678.136-1.267.303-1.767a4.163 4.163 0 0 1 .982-1.554c.44-.44.959-.768 1.554-.982.5-.166 1.09-.268 1.768-.303C15.339 10.018 16.452 10 18 10s2.66.018 3.34.054c.678.035 1.267.136 1.767.303a4.163 4.163 0 0 1 1.554.982c.44.44.768.959.982 1.554.166.5.274 1.095.321 1.786Zm-1.518 8.183c.148-.417.246-1.08.295-1.989.024-.54.037-1.301.037-2.284v-1.178c0-1.007-.012-1.769-.037-2.284-.05-.933-.147-1.597-.295-1.99a2.659 2.659 0 0 0-1.584-1.583c-.393-.148-1.056-.246-1.989-.295a53.682 53.682 0 0 0-2.284-.037h-1.178c-.983 0-1.744.012-2.284.037-.909.05-1.572.147-1.99.295a2.658 2.658 0 0 0-1.583 1.584c-.148.393-.246 1.056-.295 1.989-.024.54-.037 1.301-.037 2.284v1.178c0 .983.013 1.744.037 2.284.05.909.147 1.572.295 1.99.319.76.847 1.288 1.584 1.583.417.147 1.08.246 1.989.295.54.024 1.301.037 2.284.037h1.178c1.007 0 1.769-.013 2.284-.037.933-.05 1.596-.148 1.99-.295.76-.319 1.289-.847 1.583-1.584Z" fill="#CCC"/></svg>