<svg width="43" height="42" fill="none" xmlns="http://www.w3.org/2000/svg"><path d="M.015 21.734v-1.468C.402 9.008 9.651 0 21.003 0c11.597 0 21 9.402 21 21s-9.403 21-21 21C9.65 42 .403 32.992.015 21.734Z" fill="#C52929"/><path fill-rule="evenodd" clip-rule="evenodd" d="M11.74 18.246v-7.143H8.36v18.509h3.376l.004-6.523c-.004-1.094.099-1.921.305-2.481.203-.56.524-.978.97-1.258.436-.277.94-.418 1.498-.418.49 0 .895.109 1.22.329.325.214.55.504.679.874.128.367.189 1.232.189 2.598v6.878h3.38v-7.638c0-1.168-.058-2.03-.174-2.584a4.125 4.125 0 0 0-.65-1.523c-.316-.456-.785-.832-1.413-1.125-.625-.296-1.322-.444-2.101-.444-1.512 0-2.816.653-3.903 1.949Zm13.302 0v-7.143h-3.376v18.509h3.376v-6.523c0-1.094.103-1.921.305-2.481.206-.56.528-.978.969-1.258.437-.277.94-.418 1.499-.418.49 0 .897.109 1.22.329.326.214.55.504.679.874.13.367.193 1.232.193 2.598v6.878h3.375v-7.638c0-1.168-.057-2.03-.174-2.584a4.108 4.108 0 0 0-.65-1.523c-.315-.456-.784-.832-1.408-1.125-.628-.296-1.33-.444-2.105-.444-1.512 0-2.815.653-3.903 1.949Z" fill="#fff"/></svg>