<svg width="30" height="30" fill="none" xmlns="http://www.w3.org/2000/svg"><path clip-rule="evenodd" d="M12.5 17.806s-1.5-.51-1.5-3.064c-.826 0-.826-2.042 0-2.042 0-.342-1.5-4.084 1-3.573.5-2.043 6-2.043 6.5 0 .347 1.417-.5 3.322-.5 3.573.826 0 .826 2.043 0 2.043 0 2.552-1.5 3.063-1.5 3.063v2.552c2.477.949 4.93 1.733 6.186 2.63A11.832 11.832 0 0 0 26 14.743C26 8.256 20.852 3 14.5 3S3 8.257 3 14.742c0 3.22 1.27 6.136 3.325 8.258 1.33-.94 3.952-1.783 6.175-2.642v-2.552Z" stroke="#fff" stroke-width="1.5" stroke-linejoin="round"/><path d="M6.5 23.14c2.039 1.846 4.867 2.99 7.995 2.99 3.132 0 5.965-1.148 8.005-3" stroke="#fff" stroke-width="1.5" stroke-linejoin="round"/></svg>