<svg width="40" height="40" fill="none" xmlns="http://www.w3.org/2000/svg"><path d="M25 36.25s7.5 0 7.5-8.75h2.75a2.25 2.25 0 0 0 2.25-2.25V18.5a2.25 2.25 0 0 0-2.25-2.25H32.5v-2.5c0-6.903-4.972-12.5-11.875-12.5h-1.25C12.471 1.25 7.5 6.847 7.5 13.75v2.5H4.75A2.25 2.25 0 0 0 2.5 18.5v6.75a2.25 2.25 0 0 0 2.25 2.25h1.5" stroke="#666" stroke-width="2" stroke-miterlimit="10" stroke-linecap="round" stroke-linejoin="round"/><path d="M25 36.25a2.5 2.5 0 0 0-2.5-2.5H20a2.5 2.5 0 0 0 0 5h2.5a2.5 2.5 0 0 0 2.5-2.5ZM25 15l-3.75 8.75H30M27.5 20v7.5M11.25 15.969a3.75 3.75 0 0 1 5.398 5.173L11.25 27.5h7.5" stroke="#666" stroke-width="2" stroke-miterlimit="10" stroke-linecap="round" stroke-linejoin="round"/></svg>