<svg width="36" height="36" fill="none" xmlns="http://www.w3.org/2000/svg"><path d="M35.5 18c0 9.665-7.835 17.5-17.5 17.5S.5 27.665.5 18 8.335.5 18 .5 35.5 8.335 35.5 18Z" stroke="#CCC"/><path d="M17.313 15.281c0 .069 0 .137.004.205a8.547 8.547 0 0 1-2.98-.9 8.548 8.548 0 0 1-2.82-2.304l-.45-.564-.37.618a3.641 3.641 0 0 0-.54 1.898c0 .602.13 1.167.396 1.687l-.397-.235V16.625c0 .89.292 1.69.865 2.381.103.125.212.242.325.351l-.244-.024.235.727c.24.744.68 1.364 1.31 1.851.279.215.577.384.893.506a5.99 5.99 0 0 1-2.759.645c-.28 0-.525-.01-.736-.029l-.316.919c1.603 1.031 3.374 1.548 5.302 1.548 2.006 0 3.8-.514 5.368-1.55 1.428-.924 2.538-2.168 3.327-3.721.764-1.463 1.149-2.99 1.149-4.573a4.35 4.35 0 0 0-.003-.182 7.715 7.715 0 0 0 1.54-1.66l.986-1.433-1.597.691c-.021.01-.043.02-.065.028.121-.217.222-.45.302-.696l.403-1.242-1.13.656a6.141 6.141 0 0 1-1.692.67 4.222 4.222 0 0 0-1.019-.66 3.63 3.63 0 0 0-1.538-.328c-.67 0-1.3.169-1.876.506a3.71 3.71 0 0 0-1.37 1.387 3.753 3.753 0 0 0-.503 1.888Z" stroke="#CCC"/></svg>