<svg width="36" height="36" fill="none" xmlns="http://www.w3.org/2000/svg"><path d="M35.5 18c0 9.665-7.835 17.5-17.5 17.5S.5 27.665.5 18 8.335.5 18 .5 35.5 8.335 35.5 18Z" stroke="#CCC"/><path d="m24.874 18.148.006-.008.004-.008c.496-.828.922-1.556 1.278-2.186.485-.86.808-1.545.9-2.012.082-.327.098-.718-.145-1.033-.247-.32-.638-.401-.978-.401h-2.084c-.299 0-.585.076-.831.254a1.516 1.516 0 0 0-.511.685l-.346.736-.003.006-.003.007c-.277.636-.563 1.22-.86 1.753-.435.754-.865 1.376-1.287 1.872-.208.244-.347.373-.424.428a1.307 1.307 0 0 1-.002-.066v-4.35c0-.317-.038-.658-.206-.913-.21-.318-.555-.412-.859-.412h-3.284c-.273 0-.519.102-.714.286a.973.973 0 0 0-.316.72c0 .314.175.603.352.832.148.19.237.343.285.462l.005.013.006.012c.108.229.178.51.2.853v3.247c0 .086-.002.16-.007.223a3.64 3.64 0 0 1-.474-.528c-.397-.515-.803-1.195-1.218-2.05l-.002-.005c-.459-.926-.849-1.876-1.17-2.85-.1-.344-.242-.67-.466-.887-.257-.248-.599-.328-.93-.328H8.706c-.3 0-.62.067-.864.288-.256.23-.342.546-.342.85 0 .322.1.818.264 1.44l.004.015.005.015c.266.797.615 1.652 1.045 2.566a23.352 23.352 0 0 0 2.051 3.555c.88 1.349 1.918 2.403 3.118 3.146 1.193.74 2.401 1.125 3.618 1.125.334 0 .63-.02.882-.064.242-.043.485-.116.678-.253l.007-.005.006-.005c.35-.265.436-.673.41-1.054v-.956c0-.61.013-.961.03-1.096l.005-.034V22c0-.04.002-.073.004-.1a.72.72 0 0 1 .026 0c.067 0 .247.046.574.269.31.212.692.542 1.15 1.003.272.29.588.65.947 1.08.185.222.347.407.483.552.124.131.245.25.355.33a1.58 1.58 0 0 0 1.011.366h2.083c.377 0 .754-.111 1.01-.432.264-.332.272-.745.183-1.12l-.003-.015-.005-.015c-.133-.44-.472-.994-.952-1.636-.49-.655-1.161-1.447-2.012-2.375l-.307-.363a.743.743 0 0 1-.092-.138 1.4 1.4 0 0 1 .117-.232l.015-.02.043-.062.134-.2c.113-.17.275-.419.487-.744Z" stroke="#CCC"/></svg>