<svg width="40" height="40" viewBox="0 0 40 40" fill="none" xmlns="http://www.w3.org/2000/svg">
<path d="M30 9.375L23.75 3.125L17.5 9.375M23.75 20.625V3.125V20.625Z" stroke="#666666" stroke-width="2" stroke-miterlimit="10" stroke-linecap="round" stroke-linejoin="round"/>
<path d="M2.5 4.375H6.25L11.25 26.875H37.5" stroke="#666666" stroke-width="2" stroke-miterlimit="10" stroke-linecap="round" stroke-linejoin="round"/>
<path d="M15 36.875C16.3807 36.875 17.5 35.7557 17.5 34.375C17.5 32.9943 16.3807 31.875 15 31.875C13.6193 31.875 12.5 32.9943 12.5 34.375C12.5 35.7557 13.6193 36.875 15 36.875Z" stroke="#666666" stroke-width="2" stroke-miterlimit="10" stroke-linecap="round" stroke-linejoin="round"/>
<path d="M31.25 36.875C32.6307 36.875 33.75 35.7557 33.75 34.375C33.75 32.9943 32.6307 31.875 31.25 31.875C29.8693 31.875 28.75 32.9943 28.75 34.375C28.75 35.7557 29.8693 36.875 31.25 36.875Z" stroke="#666666" stroke-width="2" stroke-miterlimit="10" stroke-linecap="round" stroke-linejoin="round"/>
</svg>
