<svg width="40" height="40" viewBox="0 0 40 40" fill="none" xmlns="http://www.w3.org/2000/svg">
<path d="M25 36.25C25 36.25 32.5 36.25 32.5 27.5H35.25C35.8467 27.5 36.419 27.2629 36.841 26.841C37.2629 26.419 37.5 25.8467 37.5 25.25V18.5C37.5 17.9033 37.2629 17.331 36.841 16.909C36.419 16.4871 35.8467 16.25 35.25 16.25H32.5V13.75C32.5 6.84687 27.5281 1.25 20.625 1.25H19.375C12.4706 1.25 7.5 6.84687 7.5 13.75V16.25H4.75C4.15326 16.25 3.58097 16.4871 3.15901 16.909C2.73705 17.331 2.5 17.9033 2.5 18.5V25.25C2.5 25.8467 2.73705 26.419 3.15901 26.841C3.58097 27.2629 4.15326 27.5 4.75 27.5H6.25" stroke="#666666" stroke-width="2" stroke-miterlimit="10" stroke-linecap="round" stroke-linejoin="round"/>
<path d="M25 36.25C25 35.587 24.7366 34.9511 24.2678 34.4822C23.7989 34.0134 23.163 33.75 22.5 33.75H20C19.337 33.75 18.7011 34.0134 18.2322 34.4822C17.7634 34.9511 17.5 35.587 17.5 36.25C17.5 36.913 17.7634 37.5489 18.2322 38.0178C18.7011 38.4866 19.337 38.75 20 38.75H22.5C23.163 38.75 23.7989 38.4866 24.2678 38.0178C24.7366 37.5489 25 36.913 25 36.25Z" stroke="#666666" stroke-width="2" stroke-miterlimit="10" stroke-linecap="round" stroke-linejoin="round"/>
<path d="M25 15L21.25 23.75H30M27.5 20V27.5M11.25 15.9687C11.9544 15.3411 12.8695 15.0021 13.8127 15.0192C14.756 15.0363 15.6582 15.4084 16.3393 16.0611C17.0205 16.7139 17.4305 17.5994 17.4878 18.5411C17.545 19.4828 17.2452 20.4114 16.6481 21.1419L11.25 27.5H18.75" stroke="#666666" stroke-width="2" stroke-miterlimit="10" stroke-linecap="round" stroke-linejoin="round"/>
</svg>
