<svg width="140" height="40" viewBox="0 0 140 40" fill="none" xmlns="http://www.w3.org/2000/svg">
<rect x="0.5" y="0.5" width="139" height="39" rx="0.5" stroke="#CCCCCC"/>
<path fill-rule="evenodd" clip-rule="evenodd" d="M44.4367 23.1085V24.7574H48.4137C48.3515 25.5343 48.0271 26.2674 47.4933 26.8376C46.6887 27.653 45.5753 28.0921 44.4279 28.0465C42.0131 28.0108 40.0744 26.0525 40.0744 23.6492C40.0744 21.2458 42.0131 19.2876 44.4279 19.2518C45.5487 19.2338 46.631 19.6588 47.4375 20.4335L48.6074 19.2703C47.5071 18.1615 46.0025 17.5435 44.4367 17.5571C42.2091 17.4728 40.1135 18.6073 38.9746 20.5143C37.8356 22.4213 37.8356 24.7954 38.9746 26.7023C40.1135 28.6093 42.2091 29.7438 44.4367 29.6595C46.0311 29.731 47.5787 29.1127 48.6807 27.9638C49.6449 26.9094 50.1598 25.5234 50.1166 24.0984C50.1196 23.751 50.0888 23.4042 50.0247 23.0627L44.4367 23.1085ZM54.6463 21.9082C52.4868 21.9136 50.74 23.6592 50.7436 25.8083C50.7472 27.9574 52.4998 29.6972 54.6593 29.6954C56.8189 29.6936 58.5686 27.9509 58.5686 25.8018C58.5836 24.7613 58.1735 23.7592 57.4323 23.0252C56.691 22.2911 55.682 21.888 54.6365 21.9082H54.6463ZM59.3227 25.8141C59.3159 23.6661 61.0582 21.9184 63.2166 21.9082C64.2619 21.8883 65.2706 22.2915 66.0117 23.0255C66.7528 23.7595 67.1627 24.7614 67.1477 25.8018C67.1476 27.9498 65.3997 29.692 63.2413 29.6954C61.083 29.6988 59.3295 27.962 59.3227 25.8141ZM60.9083 26.8273C61.3286 27.7029 62.2439 28.2338 63.2166 28.1663C63.8274 28.1523 64.4066 27.8933 64.8227 27.4481C65.2387 27.0028 65.4564 26.4092 65.4261 25.8019C65.4234 24.8316 64.8249 23.9615 63.917 23.6078C63.0091 23.2541 61.9762 23.4885 61.3122 24.199C60.6482 24.9096 60.4881 25.9518 60.9083 26.8273ZM52.3322 26.8339C52.7553 27.7089 53.6732 28.2373 54.6463 28.1661H54.6365C55.2475 28.1524 55.827 27.8935 56.2433 27.4483C56.6596 27.003 56.8773 26.4092 56.8471 25.8017C56.8441 24.8307 56.2445 23.9603 55.3355 23.6073C54.4265 23.2543 53.393 23.4906 52.73 24.203C52.0669 24.9154 51.9091 25.9589 52.3322 26.8339ZM82.7976 21.9092C84.3237 21.9651 85.6568 22.9525 86.1486 24.3914L86.3413 24.8031L81.1035 26.9563C81.4319 27.7004 82.184 28.169 83.0001 28.138C83.7878 28.1401 84.5186 27.7297 84.924 27.0575L86.2592 27.9735C85.5326 29.0562 84.3083 29.7034 83.0001 29.6964C81.9603 29.7117 80.9589 29.3055 80.2262 28.5712C79.4934 27.8368 79.0923 26.8375 79.115 25.8028C79.0514 24.7918 79.4112 23.7998 80.1088 23.0622C80.8065 22.3246 81.7797 21.9072 82.7976 21.9092ZM80.8081 25.6918C80.7705 25.1193 80.966 24.5558 81.3506 24.1284C81.7352 23.701 82.2764 23.4456 82.8524 23.4199C83.4588 23.381 84.032 23.7051 84.3069 24.2444L80.8091 25.6918H80.8081ZM78.2777 29.4668H76.5562H76.5552V18.0146H78.2777V29.4668ZM73.7392 22.7793H73.6746C73.15 22.1952 72.3999 21.8616 71.6128 21.8623C69.5253 21.9661 67.8863 23.6808 67.8863 25.7608C67.8863 27.8408 69.5253 29.5554 71.6128 29.6593C72.4025 29.6722 73.1574 29.3364 73.6746 28.7423H73.7294V29.302C73.7294 30.7952 72.9283 31.5925 71.6401 31.5925C70.762 31.5718 69.9836 31.0248 69.6702 30.2083L68.1698 30.8313C68.7474 32.2302 70.1204 33.1402 71.6401 33.1314C73.656 33.1314 75.3218 31.9497 75.3218 29.0723V22.1378H73.7392V22.7783V22.7793ZM71.7662 28.1658L71.7693 28.1661H71.7595L71.7662 28.1658ZM73.3174 27.4309C72.9224 27.8759 72.3622 28.1412 71.7662 28.1658C70.537 28.0559 69.5949 27.0307 69.5949 25.8021C69.5949 24.5726 70.5386 23.5467 71.7693 23.4382C72.3639 23.4688 72.921 23.7369 73.3143 24.1818C73.7076 24.6267 73.9039 25.2108 73.8585 25.8017C73.9095 26.3955 73.714 26.9842 73.3174 27.4309ZM94.2122 18.0147H90.0973V29.4668H91.8188V25.1244H94.222C95.5581 25.2178 96.8348 24.5614 97.5314 23.423C98.228 22.2846 98.228 20.8545 97.5314 19.7161C96.8348 18.5776 95.5581 17.9212 94.222 18.0147H94.2122ZM91.81 23.5113H94.2123L94.2494 23.5395C95.3401 23.5395 96.2243 22.6596 96.2243 21.5742C96.2243 20.4888 95.3401 19.6089 94.2494 19.6089H91.81V23.5113ZM104.827 21.8624C103.546 21.7863 102.342 22.4738 101.761 23.6126L103.289 24.2453C103.597 23.6807 104.212 23.3498 104.854 23.4014C105.296 23.3499 105.74 23.4772 106.086 23.7547C106.433 24.0322 106.652 24.4367 106.696 24.8771V24.9958C106.143 24.7043 105.526 24.5532 104.9 24.5558C103.253 24.5558 101.586 25.4718 101.586 27.1305C101.619 27.8448 101.941 28.5156 102.479 28.9901C103.016 29.4646 103.724 29.7025 104.44 29.6497C105.324 29.7128 106.171 29.2909 106.65 28.5497H106.705V29.4667H108.362V25.0601C108.362 23.0539 106.834 21.8897 104.873 21.8897L104.827 21.8624ZM103.272 27.1674C103.272 27.8546 104.054 28.1379 104.616 28.1379L104.662 28.1661C105.699 28.1408 106.559 27.3589 106.677 26.3332C106.2 26.068 105.659 25.9352 105.112 25.9487C104.247 25.9487 103.272 26.2504 103.272 27.1674ZM114.401 22.1379L112.431 27.1023H112.376L110.332 22.1379H108.491L111.556 29.0822L109.807 32.9388H111.602L116.316 22.1379H114.401ZM100.648 29.4668H98.9268V18.0146H100.648V29.4668Z" fill="white"/>
<path d="M10.1487 8.84966C9.87321 9.19664 9.74114 9.64344 9.78157 10.0919V28.9504C9.75562 29.3861 9.89306 29.8149 10.1651 30.1505L10.2227 30.2106L20.5263 19.6498V19.4014L10.2064 8.78955L10.1487 8.84966Z" fill="#5BC9F4"/>
<path d="M24.0959 23.3946L20.5264 20.0987V19.8674L24.0959 16.5789L24.1736 16.619L28.4155 18.8377C29.626 19.4682 29.626 20.5053 28.4155 21.1442L24.1905 23.362L24.0959 23.3946Z" fill="url(#paint0_linear_91_1721)"/>
<path d="M23.4501 23.015L19.9884 19.5L9.77441 29.8726C10.2568 30.3039 10.9747 30.3244 11.4807 29.9223L23.4586 23.016" fill="url(#paint1_linear_91_1721)"/>
<path d="M23.4586 15.9854L11.4808 9.07763C10.9725 8.67562 10.2598 8.69636 9.77441 9.12728L19.9967 19.5001L23.4586 15.9854Z" fill="url(#paint2_linear_91_1721)"/>
<path fill-rule="evenodd" clip-rule="evenodd" d="M39.7119 13.1838H39.0977V15.3597H39.8962V13.8611H44.4593V15.3597H45.2578V13.1838H44.5646V7.81592H40.528L40.529 9.01818C40.5291 9.82338 40.4511 10.6268 40.296 11.418C40.2218 11.7821 40.136 12.117 40.0366 12.4218C39.9371 12.7266 39.8289 12.9806 39.7119 13.1838ZM43.731 8.49316V13.1837H40.6246C40.7339 12.957 40.8236 12.7219 40.8927 12.4809C40.9775 12.1987 41.0526 11.8902 41.1209 11.5534C41.2643 10.8322 41.3361 10.0995 41.3354 9.36523V8.49316H43.731ZM48.1292 13.9541C47.7665 13.9541 47.4497 13.8967 47.1767 13.781C46.9131 13.671 46.6781 13.5062 46.4883 13.2984C46.2981 13.0872 46.1548 12.8407 46.0671 12.574C45.9713 12.2839 45.9239 11.981 45.9267 11.6765C45.9267 11.3548 45.9735 11.0547 46.0671 10.7744C46.1607 10.495 46.3011 10.2532 46.4883 10.0462C46.6755 9.84022 46.9046 9.67841 47.1767 9.55988C47.4497 9.44135 47.7665 9.38208 48.1292 9.38208C48.4861 9.38208 48.802 9.44135 49.077 9.55988C49.3519 9.67841 49.583 9.84022 49.7702 10.0462C49.9574 10.2532 50.0978 10.495 50.1914 10.7744C50.285 11.0547 50.3318 11.3548 50.3318 11.6765C50.3318 11.9983 50.285 12.2974 50.1914 12.574C50.0978 12.8506 49.9574 13.0914 49.7702 13.2984C49.583 13.5044 49.3519 13.6653 49.077 13.781C48.7769 13.9012 48.4542 13.9602 48.1292 13.9541ZM48.6782 13.2175C48.5046 13.2909 48.3223 13.3276 48.1292 13.3276C47.7481 13.3283 47.3846 13.1731 47.1289 12.9005C47.0002 12.7612 46.8997 12.59 46.8256 12.384C46.7525 12.177 46.7164 11.9419 46.7164 11.6766C46.7164 11.4113 46.7525 11.1761 46.8266 10.9701C46.8997 10.7631 47.0002 10.59 47.1289 10.4489C47.253 10.311 47.4072 10.2011 47.5803 10.1272C47.7532 10.0537 47.9403 10.0162 48.1292 10.0171C48.3182 10.0162 48.5052 10.0537 48.6782 10.1272C48.8513 10.2011 49.0054 10.311 49.1296 10.4489C49.2652 10.6014 49.3682 10.7782 49.4328 10.9691C49.506 11.1761 49.542 11.4113 49.542 11.6766C49.542 11.9419 49.506 12.177 49.4319 12.384C49.3587 12.5891 49.2583 12.7612 49.1296 12.8995C49.0009 13.0388 48.8507 13.1441 48.6782 13.2175ZM53.2822 13.9541C52.9371 13.9541 52.6319 13.9004 52.3657 13.7932C52.1096 13.6929 51.8813 13.5363 51.6988 13.336C51.5156 13.1309 51.3779 12.8917 51.2942 12.6333C51.2002 12.34 51.1545 12.0343 51.1586 11.7273C51.1586 11.4 51.2025 11.0942 51.2903 10.8092C51.378 10.5232 51.5106 10.2758 51.69 10.0632C51.8685 9.85151 52.0898 9.68594 52.356 9.56458C52.6231 9.44229 52.9371 9.38208 53.2998 9.38208C53.5572 9.38208 53.798 9.41124 54.0232 9.47145C54.2494 9.53072 54.4474 9.62197 54.62 9.74615C54.7935 9.87032 54.9349 10.0265 55.046 10.2165C55.1572 10.4047 55.2274 10.6295 55.2566 10.8891H54.4844C54.4259 10.6126 54.3031 10.3981 54.1159 10.2457C53.9287 10.0933 53.6771 10.0171 53.3612 10.0171C53.0921 10.0171 52.8669 10.0651 52.6855 10.161C52.5102 10.2514 52.3608 10.3823 52.2507 10.542C52.1434 10.7001 52.0654 10.8816 52.0186 11.0876C51.9713 11.2978 51.9478 11.5123 51.9484 11.7273C51.9484 11.9305 51.9728 12.1281 52.0225 12.32C52.0732 12.5119 52.1502 12.6822 52.2555 12.8318C52.3608 12.9823 52.4964 13.1018 52.6641 13.1921C52.8298 13.2824 53.0336 13.3275 53.2735 13.3275C53.642 13.3275 53.9296 13.2344 54.1383 13.0481C54.346 12.8619 54.4727 12.5994 54.5195 12.2607H55.283C55.2011 12.8082 54.9934 13.2269 54.6599 13.5185C54.3265 13.8092 53.8672 13.9541 53.2822 13.9541ZM55.7851 10.1186H57.4085V13.8609H58.1544V10.1186H59.7778V9.48364H55.7851V10.1186ZM61.0346 15.605C60.9468 15.605 60.8591 15.5994 60.7713 15.5881C60.6845 15.577 60.5992 15.5572 60.5168 15.5288V14.8684L60.7313 14.9362C60.8038 14.9586 60.8795 14.9701 60.9556 14.97C61.0867 14.976 61.2161 14.9403 61.3241 14.8684C61.4279 14.7886 61.5119 14.6873 61.5698 14.5721L61.877 13.8355L60.0781 9.48364H60.9205L62.2455 13.065H62.2631L63.5355 9.48364H64.3252L62.3508 14.4366C62.2631 14.6511 62.1773 14.8317 62.0915 14.9785C62.0174 15.1114 61.9227 15.2326 61.8107 15.3378C61.7131 15.4282 61.5968 15.4974 61.4694 15.541C61.3292 15.5858 61.1822 15.6074 61.0346 15.605ZM68.8552 9.48364H65.152V13.8609H65.8979V10.1186H68.1093V13.8609H68.8552V9.48364ZM70.1734 9.48364H70.9193V11.2278H73.2184V9.48364H73.9643V13.8609H73.2184V11.8458H70.9193V13.8609H70.1734V9.48364ZM76.2868 13.781C76.5598 13.8967 76.8767 13.9541 77.2394 13.9541C77.5643 13.9602 77.887 13.9012 78.1871 13.781C78.462 13.6653 78.6931 13.5044 78.8803 13.2984C79.0675 13.0914 79.2079 12.8506 79.3015 12.574C79.3951 12.2974 79.4419 11.9983 79.4419 11.6765C79.4419 11.3548 79.3951 11.0547 79.3015 10.7744C79.2079 10.495 79.0675 10.2532 78.8803 10.0462C78.6931 9.84022 78.462 9.67841 78.1871 9.55988C77.9121 9.44135 77.5962 9.38208 77.2394 9.38208C76.8767 9.38208 76.5598 9.44135 76.2877 9.55988C76.0147 9.67841 75.7856 9.84022 75.5984 10.0462C75.4112 10.2532 75.2708 10.495 75.1772 10.7744C75.0836 11.0547 75.0368 11.3548 75.0368 11.6765C75.034 11.981 75.0814 12.2839 75.1772 12.574C75.2649 12.8407 75.4082 13.0872 75.5984 13.2984C75.7882 13.5062 76.0232 13.671 76.2868 13.781ZM77.2393 13.3276C77.4324 13.3276 77.6147 13.2909 77.7883 13.2175C77.9608 13.1441 78.111 13.0388 78.2397 12.8995C78.3684 12.7612 78.4688 12.5891 78.542 12.384C78.6161 12.177 78.6521 11.9419 78.6521 11.6766C78.6521 11.4113 78.6161 11.1761 78.5429 10.9691C78.4783 10.7782 78.3753 10.6014 78.2397 10.4489C78.1155 10.311 77.9614 10.2011 77.7883 10.1272C77.6153 10.0537 77.4283 10.0162 77.2393 10.0171C77.0504 10.0162 76.8633 10.0537 76.6904 10.1272C76.5173 10.2011 76.3631 10.311 76.239 10.4489C76.1103 10.59 76.0098 10.7631 75.9367 10.9701C75.8626 11.1761 75.8265 11.4113 75.8265 11.6766C75.8265 11.9419 75.8626 12.177 75.9357 12.384C76.0098 12.59 76.1103 12.7612 76.239 12.9005C76.3677 13.0388 76.5178 13.1441 76.6904 13.2175C76.864 13.2909 77.0463 13.3276 77.2393 13.3276ZM85.2462 9.48364H83.1489V13.8609H85.6147C85.8037 13.8628 85.9914 13.8299 86.1676 13.764C86.3372 13.6981 86.4835 13.6097 86.6063 13.4968C86.7304 13.3825 86.8278 13.2439 86.892 13.0904C86.9593 12.9324 86.9924 12.7602 86.9924 12.574C86.9924 12.2805 86.9154 12.0406 86.7604 11.8543C86.6044 11.668 86.3957 11.5495 86.1325 11.4987V11.4902C86.3431 11.3943 86.5069 11.2729 86.6239 11.1262C86.7409 10.9794 86.7994 10.7875 86.7994 10.5504C86.7994 10.3303 86.7555 10.1497 86.6678 10.0086C86.58 9.86746 86.463 9.75834 86.3168 9.68308C86.1705 9.60594 86.0057 9.5542 85.8214 9.52598C85.6362 9.49775 85.4451 9.48364 85.2462 9.48364ZM85.4743 13.2514C85.7201 13.2514 85.9053 13.1827 86.0321 13.0444C86.1602 12.8995 86.2273 12.7136 86.2202 12.5233C86.2282 12.3443 86.1544 12.171 86.0184 12.0491C85.8839 11.9306 85.6586 11.8713 85.3427 11.8713H83.886V13.2514H85.4743ZM85.838 11.1093C85.7132 11.2221 85.489 11.2786 85.1672 11.2786H83.886V10.0933H85.1672C85.4948 10.0933 85.7201 10.1422 85.8429 10.241C85.9685 10.3456 86.0366 10.5006 86.0272 10.6605C86.0345 10.8295 85.9655 10.9932 85.838 11.1093Z" fill="white"/>
<defs>
<linearGradient id="paint0_linear_91_1721" x1="27.6297" y1="11.8922" x2="6.73462" y2="11.8922" gradientUnits="userSpaceOnUse">
<stop stop-color="#FEE000"/>
<stop offset="0.42" stop-color="#FBBC0E"/>
<stop offset="0.78" stop-color="#FAA418"/>
<stop offset="1" stop-color="#F99B1C"/>
</linearGradient>
<linearGradient id="paint1_linear_91_1721" x1="7.37345" y1="17.1894" x2="0.317496" y2="37.4326" gradientUnits="userSpaceOnUse">
<stop stop-color="#EF4547"/>
<stop offset="1" stop-color="#C6186D"/>
</linearGradient>
<linearGradient id="paint2_linear_91_1721" x1="-1.23097" y1="2.011" x2="4.53611" y2="18.5356" gradientUnits="userSpaceOnUse">
<stop stop-color="#279E6F"/>
<stop offset="0.04" stop-color="#2BA06F"/>
<stop offset="0.46" stop-color="#53B26C"/>
<stop offset="0.8" stop-color="#6BBD6A"/>
<stop offset="1" stop-color="#74C169"/>
</linearGradient>
</defs>
</svg>
