<svg width="47" height="46" viewBox="0 0 47 46" fill="none" xmlns="http://www.w3.org/2000/svg">
<path d="M0.0167236 23.8043V22.1957C0.440474 9.86572 10.5697 0 23.0029 0C35.7054 0 46.0029 10.2976 46.0029 23C46.0029 35.7024 35.7054 46 23.0029 46C10.5697 46 0.440474 36.1343 0.0167236 23.8043Z" fill="#CCCCCC"/>
<path fill-rule="evenodd" clip-rule="evenodd" d="M12.8578 19.9836V12.1602H9.1571V32.4317H12.8534L12.8578 25.2881C12.8534 24.0894 12.9661 23.1838 13.1925 22.5704C13.4144 21.9582 13.7661 21.4998 14.2541 21.1932C14.7321 20.8894 15.2834 20.735 15.8956 20.735C16.4315 20.735 16.8752 20.8542 17.2315 21.095C17.5868 21.3293 17.8341 21.6479 17.9746 22.0527C18.1154 22.455 18.1821 23.4021 18.1821 24.8976V32.4317H21.8839V24.0659C21.8839 22.7862 21.8207 21.8418 21.6935 21.2355C21.5663 20.6258 21.331 20.0731 20.9819 19.5678C20.6355 19.0682 20.1214 18.6561 19.4342 18.335C18.7495 18.0111 17.9857 17.8488 17.1324 17.8488C15.4764 17.8488 14.0485 18.5641 12.8578 19.9836ZM27.4268 19.9836V12.1602H23.7298V32.4317H27.4268V25.2881C27.4268 24.0894 27.5396 23.1838 27.7615 22.5704C27.9871 21.9582 28.3397 21.4998 28.8223 21.1932C29.3011 20.8894 29.8513 20.735 30.4638 20.735C30.9997 20.735 31.447 20.8542 31.7996 21.095C32.1568 21.3293 32.4031 21.6479 32.5437 22.0527C32.6853 22.455 32.7548 23.4021 32.7548 24.8976V32.4317H36.4518V24.0659C36.4518 22.7862 36.3888 21.8418 36.2616 21.2355C36.1353 20.6258 35.8991 20.0731 35.55 19.5678C35.2045 19.0682 34.6905 18.6561 34.0067 18.335C33.3194 18.0111 32.551 17.8488 31.7014 17.8488C30.0454 17.8488 28.6185 18.5641 27.4268 19.9836Z" fill="#212122"/>
</svg>
