<svg width="36" height="36" viewBox="0 0 36 36" fill="none" xmlns="http://www.w3.org/2000/svg">
<path d="M35.5 18C35.5 27.665 27.665 35.5 18 35.5C8.33502 35.5 0.5 27.665 0.5 18C0.5 8.33502 8.33502 0.5 18 0.5C27.665 0.5 35.5 8.33502 35.5 18Z" stroke="#CCCCCC"/>
<path d="M15.125 27V27.5H15.625H18.8295H19.3295V27V19.002H21.3182H21.7613L21.8146 18.5621L22.2236 15.1851L22.2915 14.625H21.7273H19.3295V12.7871C19.3295 12.2824 19.417 12.019 19.5022 11.8998C19.5897 11.789 19.8127 11.6543 20.3636 11.6543H22H22.5V11.1543V8.14844V7.72261L22.0796 7.65482C21.4292 7.54993 20.6043 7.5 19.6136 7.5C18.2904 7.5 17.185 7.93352 16.3504 8.8278C15.5118 9.72635 15.125 10.9583 15.125 12.4531V14.625H13H12.5V15.125V18.502V19.002H13H15.125V27Z" stroke="#CCCCCC"/>
</svg>
