<svg width="36" height="36" viewBox="0 0 36 36" fill="none" xmlns="http://www.w3.org/2000/svg">
<path d="M35.5 18C35.5 27.665 27.665 35.5 18 35.5C8.33502 35.5 0.5 27.665 0.5 18C0.5 8.33502 8.33502 0.5 18 0.5C27.665 0.5 35.5 8.33502 35.5 18Z" stroke="#CCCCCC"/>
<path fill-rule="evenodd" clip-rule="evenodd" d="M18 13.8928C18.7381 13.8928 19.4226 14.0773 20.0536 14.4464C20.6845 14.8154 21.1845 15.3154 21.5536 15.9464C21.9226 16.5773 22.1071 17.2619 22.1071 18C22.1071 18.7381 21.9226 19.4226 21.5536 20.0535C21.1845 20.6845 20.6845 21.1845 20.0536 21.5535C19.4226 21.9226 18.7381 22.1071 18 22.1071C17.2619 22.1071 16.5774 21.9226 15.9464 21.5535C15.3155 21.1845 14.8155 20.6845 14.4464 20.0535C14.0774 19.4226 13.8929 18.7381 13.8929 18C13.8929 17.2619 14.0774 16.5773 14.4464 15.9464C14.8155 15.3154 15.3155 14.8154 15.9464 14.4464C16.5774 14.0773 17.2619 13.8928 18 13.8928ZM18 20.7996C18.7715 20.7996 19.4309 20.5259 19.9784 19.9784C20.5259 19.4309 20.7996 18.7715 20.7996 18C20.7996 17.2286 20.5259 16.5691 19.9784 16.0217C19.4309 15.4742 18.7715 15.2004 18 15.2004C17.2286 15.2004 16.5691 15.4742 16.0216 16.0217C15.4741 16.5691 15.2004 17.2286 15.2004 18C15.2004 18.7715 15.4741 19.4309 16.0216 19.9784C16.5691 20.5259 17.2286 20.7996 18 20.7996ZM23.25 13.7143C23.2262 13.9762 23.125 14.2024 22.9464 14.3929C22.7679 14.5833 22.5476 14.6786 22.2857 14.6786C22.0238 14.6786 21.7976 14.5833 21.6072 14.3929C21.4167 14.2024 21.3214 13.9762 21.3214 13.7143C21.3214 13.4524 21.4167 13.2262 21.6072 13.0357C21.7976 12.8452 22.0238 12.75 22.2857 12.75C22.5476 12.75 22.7738 12.8452 22.9643 13.0357C23.1548 13.2262 23.25 13.4524 23.25 13.7143ZM25.9643 14.6786C25.9881 15.3452 26 16.4524 26 18C26 19.5476 25.9821 20.6607 25.9464 21.3393C25.9107 22.0179 25.8095 22.6071 25.6429 23.1071C25.4286 23.7024 25.1012 24.2202 24.6607 24.6607C24.2202 25.1012 23.7024 25.4286 23.1071 25.6429C22.6071 25.8095 22.0179 25.9107 21.3393 25.9464C20.6607 25.9821 19.5476 26 18 26C16.4524 26 15.3393 25.9821 14.6607 25.9464C13.9821 25.9107 13.3929 25.7976 12.8929 25.6071C12.2976 25.4167 11.7798 25.1012 11.3393 24.6607C10.8988 24.2202 10.5714 23.7024 10.3571 23.1071C10.1905 22.6071 10.0893 22.0179 10.0536 21.3393C10.0179 20.6607 10 19.5476 10 18C10 16.4524 10.0179 15.3393 10.0536 14.6607C10.0893 13.9821 10.1905 13.3929 10.3571 12.8929C10.5714 12.2976 10.8988 11.7798 11.3393 11.3393C11.7798 10.8988 12.2976 10.5714 12.8929 10.3571C13.3929 10.1905 13.9821 10.0893 14.6607 10.0536C15.3393 10.0179 16.4524 10 18 10C19.5476 10 20.6607 10.0179 21.3393 10.0536C22.0179 10.0893 22.6071 10.1905 23.1071 10.3571C23.7024 10.5714 24.2202 10.8988 24.6607 11.3393C25.1012 11.7798 25.4286 12.2976 25.6429 12.8929C25.8095 13.3929 25.9167 13.9881 25.9643 14.6786ZM24.4463 22.8623C24.5936 22.4448 24.6918 21.7817 24.7409 20.8731C24.7655 20.3329 24.7778 19.5716 24.7778 18.5893V17.4106C24.7778 16.4037 24.7655 15.6425 24.7409 15.1268C24.6918 14.1936 24.5936 13.5305 24.4463 13.1376C24.1516 12.3764 23.6236 11.8484 22.8623 11.5537C22.4694 11.4063 21.8064 11.3081 20.8732 11.259C20.3329 11.2344 19.5717 11.2222 18.5894 11.2222H17.4106C16.4283 11.2222 15.6671 11.2344 15.1268 11.259C14.2182 11.3081 13.5552 11.4063 13.1377 11.5537C12.3764 11.8484 11.8484 12.3764 11.5538 13.1376C11.4064 13.5305 11.3082 14.1936 11.2591 15.1268C11.2345 15.667 11.2222 16.4283 11.2222 17.4106V18.5893C11.2222 19.5716 11.2345 20.3329 11.2591 20.8731C11.3082 21.7817 11.4064 22.4448 11.5538 22.8623C11.873 23.6235 12.401 24.1515 13.1377 24.4462C13.5552 24.5935 14.2182 24.6918 15.1268 24.7409C15.6671 24.7654 16.4283 24.7777 17.4106 24.7777H18.5894C19.5962 24.7777 20.3575 24.7654 20.8732 24.7409C21.8064 24.6918 22.4694 24.5935 22.8623 24.4462C23.6236 24.127 24.1516 23.599 24.4463 22.8623Z" fill="#CCCCCC"/>
</svg>
