<svg width="36" height="36" viewBox="0 0 36 36" fill="none" xmlns="http://www.w3.org/2000/svg">
<path d="M35.5 18C35.5 27.665 27.665 35.5 18 35.5C8.33502 35.5 0.5 27.665 0.5 18C0.5 8.33502 8.33502 0.5 18 0.5C27.665 0.5 35.5 8.33502 35.5 18Z" stroke="#CCCCCC"/>
<path d="M17.3125 15.2812C17.3125 15.3495 17.3139 15.4177 17.3167 15.4858C16.27 15.3688 15.278 15.0691 14.3377 14.5864C13.2228 14.0142 12.2839 13.2469 11.5162 12.2824L11.0672 11.7182L10.6963 12.3365C10.3401 12.9302 10.1562 13.5653 10.1562 14.2344C10.1562 14.8363 10.2877 15.401 10.5532 15.9208L10.1562 15.6863V16.5625V16.625C10.1562 17.5144 10.4483 18.3142 11.0211 19.0063C11.1245 19.1312 11.2329 19.2482 11.3463 19.3571L11.1021 19.3327L11.3366 20.0598C11.5769 20.8044 12.0178 21.4242 12.6472 21.9111C12.9257 22.1265 13.2239 22.295 13.5402 22.4168C12.6924 22.8481 11.7747 23.0625 10.7812 23.0625C10.5009 23.0625 10.256 23.0525 10.0453 23.0333L9.72933 23.9517C11.332 24.9835 13.1033 25.5 15.0312 25.5C17.0368 25.5 18.8316 24.9864 20.3987 23.9497C21.8274 23.0259 22.9375 21.7824 23.7258 20.2288C24.4895 18.766 24.875 17.2399 24.875 15.6562C24.875 15.5948 24.874 15.5338 24.8715 15.4743C25.464 14.9997 25.9778 14.446 26.412 13.8145L27.3978 12.3806L25.8012 13.0725C25.7795 13.0819 25.7578 13.0911 25.7361 13.1003C25.8573 12.883 25.9581 12.6509 26.0381 12.4043L26.4411 11.1617L25.3114 11.8176C24.7859 12.1228 24.2225 12.3462 23.6195 12.4877C23.3144 12.2202 22.9741 11.9999 22.6002 11.8273C22.1236 11.6073 21.6088 11.5 21.0625 11.5C20.3914 11.5 19.7627 11.669 19.1856 12.0056C18.6085 12.3422 18.1504 12.8072 17.8159 13.3926C17.4814 13.9779 17.3125 14.6102 17.3125 15.2812Z" stroke="#CCCCCC"/>
</svg>
