<svg width="36" height="36" viewBox="0 0 36 36" fill="none" xmlns="http://www.w3.org/2000/svg">
<path d="M35.5 18C35.5 27.665 27.665 35.5 18 35.5C8.33502 35.5 0.5 27.665 0.5 18C0.5 8.33502 8.33502 0.5 18 0.5C27.665 0.5 35.5 8.33502 35.5 18Z" stroke="#CCCCCC"/>
<path d="M24.8743 18.1481L24.8795 18.1401L24.8843 18.132C25.3802 17.3045 25.8062 16.5757 26.162 15.946C26.6474 15.0868 26.97 14.4007 27.0624 13.9338C27.1438 13.6069 27.1599 13.216 26.9173 12.9011C26.6701 12.5802 26.2792 12.5 25.9386 12.5H23.8551C23.5563 12.5 23.2699 12.5764 23.0239 12.754C22.7857 12.926 22.6215 13.1669 22.513 13.4393L22.1669 14.1745L22.1637 14.1813L22.1607 14.1882C21.8845 14.8237 21.5979 15.4078 21.3014 15.941C20.8659 16.6952 20.4363 17.3174 20.0143 17.8128C19.8056 18.0565 19.6666 18.1855 19.5895 18.2406C19.5885 18.2208 19.588 18.199 19.588 18.175V13.825C19.588 13.5082 19.5499 13.1673 19.3819 12.9123C19.1719 12.5937 18.8272 12.5 18.523 12.5H15.239C14.9657 12.5 14.7205 12.6018 14.525 12.7864C14.3257 12.9746 14.2093 13.2222 14.2093 13.5063C14.2093 13.8197 14.3838 14.1086 14.5614 14.3377C14.7088 14.5278 14.7982 14.6812 14.8459 14.7996L14.8512 14.8127L14.8572 14.8255C14.9648 15.054 15.0352 15.3349 15.0568 15.6777V18.925C15.0568 19.0114 15.0545 19.0853 15.0505 19.1476C14.9275 19.0421 14.7695 18.8713 14.5757 18.6198C14.1793 18.1054 13.7726 17.425 13.3584 16.5696L13.3584 16.5696L13.3564 16.5655C12.8973 15.6391 12.507 14.6888 12.1854 13.7143C12.0851 13.3708 11.9441 13.0445 11.7196 12.8278C11.4628 12.5798 11.1214 12.5 10.7897 12.5H8.70624C8.40569 12.5 8.08692 12.5667 7.84153 12.7882C7.58642 13.0185 7.5 13.334 7.5 13.6375C7.5 13.9605 7.59992 14.4563 7.76371 15.0775L7.76783 15.0931L7.77296 15.1085C8.0391 15.905 8.38802 16.7602 8.81799 17.6736C9.37158 18.8747 10.0558 20.0599 10.8693 21.2294C11.7493 22.5776 12.7869 23.6316 13.9869 24.3751C15.18 25.1141 16.3882 25.5 17.6049 25.5C17.9395 25.5 18.2359 25.4805 18.4866 25.4361C18.7292 25.3931 18.9718 25.3199 19.165 25.1831L19.1718 25.1783L19.1783 25.1734C19.5276 24.9084 19.6137 24.4999 19.588 24.1194V23.1625C19.588 22.5538 19.6007 22.202 19.6189 22.0667L19.6233 22.0335V22C19.6233 21.9605 19.6247 21.9275 19.6267 21.9004C19.6348 21.9001 19.6436 21.9 19.653 21.9C19.7202 21.9 19.9004 21.9456 20.227 22.1689C20.5365 22.3806 20.9189 22.7108 21.3768 23.1724C21.6494 23.4622 21.9648 23.8213 22.3235 24.2515C22.5094 24.4743 22.6709 24.6592 22.807 24.8037C22.9306 24.935 23.0519 25.0533 23.1616 25.1339C23.4543 25.3711 23.7961 25.5 24.173 25.5H26.2564C26.6328 25.5 27.0098 25.3886 27.2654 25.0678C27.5296 24.7362 27.5375 24.3227 27.4493 23.9479L27.4457 23.9327L27.4412 23.9177C27.308 23.4776 26.9694 22.9241 26.4891 22.2818C25.9997 21.6274 25.3276 20.8349 24.4775 19.9069L24.1701 19.5441C24.1186 19.4797 24.0912 19.4339 24.078 19.4058C24.078 19.4057 24.0779 19.4056 24.0779 19.4056C24.0805 19.3976 24.0841 19.3874 24.0893 19.3746C24.1086 19.3268 24.1419 19.2606 24.1951 19.1741C24.2032 19.1633 24.2086 19.1555 24.2098 19.1539C24.222 19.1368 24.2366 19.1156 24.2528 19.0918C24.2856 19.0438 24.3304 18.9768 24.3867 18.8918C24.4996 18.7215 24.6622 18.4733 24.8743 18.1481Z" stroke="#CCCCCC"/>
</svg>
